<svg width="1158" height="1080" viewBox="0 0 1158 1080" fill="none" xmlns="http://www.w3.org/2000/svg">
<rect width="1158" height="1080" fill="white"/>
<path d="M605.143 574.818C600.489 575.302 587.649 575.672 576.603 575.644C555.693 575.587 548.604 574.092 546.782 569.338C546.27 568.014 545.857 545.538 545.857 519.403C545.857 473.882 545.971 471.832 548.604 470.423C551.579 468.828 603.763 468.316 607.72 469.825C608.987 470.309 610.994 472.6 612.189 474.906C614.026 478.465 614.296 486.294 613.983 526.521L613.613 573.935L605.143 574.818ZM463.083 742.101C457.447 744.066 456.294 744.037 451.909 741.831L448.351 740.023L447.966 703.227C447.696 677.278 448.066 665.861 449.219 664.481C450.144 663.37 453.532 662.531 457.133 662.531C462.557 662.531 463.752 663.086 465.759 666.587L468.08 670.63L472.976 667.313C486.101 658.403 503.04 659.1 513.132 668.95L518.299 673.989L521.046 670.957C526.669 664.751 534.483 661.89 545.857 661.876C558.511 661.876 564.12 664.353 569.329 672.21C574.283 679.712 575.749 689.462 575.749 715.127C575.749 741.361 575.151 742.955 565.401 742.955C554.768 742.955 554.397 742.115 554.383 717.518C554.383 686.046 551.963 680.324 538.711 680.324C533.416 680.324 531.01 681.107 528.178 683.783C522.882 688.75 521.672 694.928 521.672 717.077C521.658 727.881 521.018 737.93 520.249 739.368C517.559 744.393 504.705 744.108 501.431 738.955C500.833 738.016 500.335 727.155 500.335 714.8C500.307 689.149 499.025 684.039 491.922 681.092C485.887 678.601 477.816 680.11 473.332 684.58C469.774 688.138 469.688 688.751 468.848 714.159C468.379 728.436 467.895 740.208 467.781 740.322C467.667 740.45 465.546 741.247 463.083 742.101ZM875.726 739.354C868.281 743.069 865.619 743.653 856.296 743.539C839.997 743.354 833.236 740.621 823.813 730.386C806.02 711.099 812.041 677.306 835.471 664.951C843.414 660.751 867.128 660.452 874.673 664.467C904.65 680.381 905.277 724.593 875.726 739.354ZM408.494 740.308C402.914 742.927 399.071 743.61 390.701 743.525C374.545 743.368 367.755 740.607 358.318 730.358C350.589 721.988 347.315 711.241 348.439 697.946C349.364 686.914 351.898 681.121 359.186 673.448C366.816 665.406 373.791 662.346 386.445 661.477C405.377 660.182 419.412 667.57 427.298 682.971C430.387 688.992 431.056 692.295 431.141 701.675C431.198 707.939 430.358 715.568 429.291 718.643C426.586 726.344 417.007 736.336 408.494 740.308ZM656.515 739.653C651.676 742.172 647.647 742.884 636.246 743.183C621.598 743.582 618.438 743.055 609.898 738.742C597.642 732.536 591.549 722.785 590.382 707.469C589.329 693.448 592.503 682.872 600.318 674.402C609.812 664.096 615.378 661.833 631.263 661.819C643.05 661.819 645.598 662.274 651.121 665.378C659.305 669.961 666.052 678.914 668.259 688.067C670.565 697.704 669.312 702.117 663.59 704.437C659.248 706.202 644.502 708.266 621.655 710.301C615.976 710.8 611.335 711.625 611.335 712.138C611.349 712.65 612.602 715.113 614.125 717.618C620.445 727.995 635.292 730.187 650.978 723.056C660.942 718.529 663.675 718.985 666.024 725.561C667.775 730.486 664.344 735.568 656.515 739.653ZM277.751 740.635C274.605 743.254 267.815 743.866 264.015 741.888L260.456 740.023L260.086 682.587C259.815 641.364 260.171 624.596 261.324 623.201C263.331 620.781 275.601 620.596 277.964 622.959C279.16 624.155 279.673 631.727 279.673 647.869C279.673 660.637 280.057 671.071 280.541 671.071C281.011 671.071 283.274 669.491 285.58 667.555C294.69 659.883 312.696 659.157 321.778 666.075C324.468 668.139 328.112 672.495 329.863 675.783C332.81 681.292 333.08 683.939 333.507 710.316C334.034 742.955 333.991 743.069 322.646 742.813C312.91 742.599 312.412 741.233 312.412 714.885C312.412 688.551 311.131 683.655 303.658 681.235C297.508 679.242 288.341 681.277 285.039 685.348C280.897 690.473 279.687 698.017 279.687 718.942C279.673 734.045 279.203 739.439 277.751 740.635ZM750.505 771.325C741.367 775.88 738.805 775.894 734.392 771.495C728.029 765.118 729.51 761.958 743.004 753.062C746.918 750.485 751.274 746.4 752.683 743.994L755.245 739.61L749.367 727.924C740.755 710.8 723.787 671.342 723.787 668.438C723.787 667.071 724.556 665.178 725.496 664.239C727.36 662.374 739.189 661.933 741.737 663.627C743.986 665.107 747.417 672.167 752.285 685.377C754.605 691.683 758.804 701.775 761.608 707.796L766.69 718.757L770.234 710.216C772.185 705.519 776.327 694.316 779.444 685.306C787.344 662.573 787.558 662.289 797.522 662.815C804.71 663.2 805.692 663.612 806.091 666.459C806.347 668.224 805.308 673.036 803.785 677.135C778.875 744.45 768.839 762.186 750.505 771.325ZM713.823 740.82C708.941 745.703 695.689 743.724 689.539 737.176L686.066 733.475L685.667 679.342C685.369 639.926 685.696 624.681 686.906 623.229C687.931 621.991 691.39 621.251 696.158 621.251C702.222 621.251 704.058 621.806 705.226 623.998C706.165 625.749 706.706 644.311 706.706 674.502V722.244L710.806 724.365C717.353 727.753 718.834 735.81 713.823 740.82ZM384.552 725.917C394.174 729.276 402.132 725.547 407.427 715.17C415.996 698.416 406.388 678.203 389.847 678.189C377.933 678.189 369.35 688.181 369.35 702.074C369.35 714.942 373.976 722.201 384.552 725.917ZM847.627 724.835C858.032 730.087 867.029 726.657 872.893 715.17C881.42 698.487 871.84 678.203 855.456 678.203C832.809 678.203 826.745 714.301 847.627 724.835ZM611.335 693.946C611.335 696.964 611.634 697.006 625.214 696.067C646.651 694.587 648.345 694.131 648.345 689.989C648.345 687.854 646.423 684.523 643.505 681.605C639.334 677.434 637.712 676.765 631.762 676.765C620.645 676.779 611.335 684.608 611.335 693.946ZM558.198 522.079C559.65 523.545 562.184 523.218 564.077 521.325C566.639 518.763 566.297 506.051 563.636 505.041C559.792 503.56 557.244 507.318 557.244 514.435C557.244 518.122 557.671 521.567 558.198 522.079Z" fill="#285F75"/>
<path d="M605.143 574.818L613.613 573.935L613.983 526.52C614.097 513.226 614.125 503.475 614.068 496.244C614.154 501.098 614.182 506.891 614.182 513.809V548.854L644.473 548.399C673.739 547.958 675.006 547.815 681.839 544.299C689.582 540.314 694.507 534.164 696.813 525.609C697.781 522.037 698.151 497.496 697.881 456.103C697.468 393.998 697.368 392.076 694.607 390.126C693.041 389.03 678.949 377.642 663.291 364.831C627.435 335.508 606.553 318.484 592.432 307.082C586.354 302.157 580.262 298.143 578.909 298.143C576.162 298.171 575.208 298.912 507.709 354.141L458.899 394.083L459.311 460.33C459.738 525.723 459.781 526.663 462.913 532.527C469.688 545.21 479.553 548.655 509.075 548.655H530.199V560.47C530.199 567.758 529.544 572.939 528.491 573.992C526 576.483 486.371 576.056 475.468 573.409C458.628 569.338 446.173 559.473 437.903 543.673L432.693 533.709L432.266 475.703C432.024 443.804 431.568 417.698 431.255 417.698C430.942 417.698 428.323 419.292 425.433 421.257C422.558 423.221 418.658 424.815 416.765 424.815C405.918 424.815 397.377 412.275 402.146 403.35C403.455 400.901 422.587 384.589 454.614 358.625C460.408 353.928 469.432 346.554 474.685 342.256C479.923 337.957 488.634 330.825 494.043 326.413C499.438 322 510.271 313.146 518.1 306.726C555.237 276.293 560.504 272.464 568.362 270.186C576.731 267.752 586.909 268.322 594.852 271.681C598.581 273.247 612.446 284.15 647.505 313.075C657.612 321.416 668.017 329.445 668.714 329.445C669.042 329.445 669.625 324.804 669.996 319.125C670.807 306.712 675.106 297.36 684.059 288.52C687.433 285.19 690.621 282.471 691.162 282.471C691.689 282.471 692.927 284.421 693.924 286.798C694.906 289.175 697.539 293.659 699.788 296.748C702.023 299.837 703.859 302.712 703.859 303.111C703.859 303.509 702.023 306.385 699.774 309.474C691.874 320.377 692.998 334.626 703.204 353.045C708.386 362.397 712.727 366.739 734.449 384.247C742.221 390.51 750.022 397.015 751.787 398.709C757.907 404.602 757.865 412.915 751.659 420.118C747.189 425.314 738.093 425.669 731.403 420.901C728.926 419.136 726.549 417.698 726.122 417.698C725.681 417.698 725.14 443.804 724.912 475.703L724.499 533.709L720.684 541.851C713.14 557.936 697.496 570.377 680.173 574.049C673.924 575.373 625.641 575.871 590.425 575.501C596.816 575.345 602.41 575.103 605.143 574.818ZM756.712 303.467C747.075 308.363 743.388 309.488 737.495 309.402C727.09 309.246 719.261 306.015 710.791 298.413C700.827 289.446 696.771 280.492 696.785 267.525C696.813 250.785 703.532 240.607 720.485 231.583C725.254 229.035 729.638 226.956 730.207 226.956C730.762 226.956 733.339 229.262 735.93 232.081L740.627 237.205L753.765 230.629C770.249 222.373 774.96 223.042 775.003 233.675C775.032 237.931 774.234 238.7 764.27 244.18C748.669 252.735 746.919 256.721 754.79 265.745C757.979 269.404 760.854 268.863 772.014 262.543C783.985 255.753 789.565 255.24 793.067 260.578C796.782 266.258 793.565 270.485 779.999 277.731L768.626 283.809V297.417L756.712 303.467ZM588.674 412.118C583.009 417.769 576.077 417.798 569.785 412.189C563.408 406.481 563.536 398.909 570.127 393.016C574.084 389.485 575.55 389.016 580.575 389.699C592.432 391.279 596.959 403.819 588.674 412.118ZM589.158 442.452C586.112 443.619 569.344 443.562 568.162 442.366C567.636 441.854 567.209 437.384 567.209 432.445C567.209 423.805 567.379 423.378 571.692 421.143C576.959 418.424 584.717 419.193 588.731 422.837C592.304 426.068 592.617 441.128 589.158 442.452ZM612.261 475.063C612.246 475.006 612.218 474.963 612.189 474.906C610.994 472.6 608.987 470.309 607.72 469.825C609.855 470.65 611.293 471.889 612.261 475.063ZM555.565 574.448C554.469 574.348 553.7 574.234 553.316 574.106C552.818 573.95 552.305 573.736 551.793 573.508C552.86 573.878 554.113 574.192 555.565 574.448Z" fill="#E1691D"/>
</svg>
